<?xml version="1.0" encoding="utf-8"?>
<!-- Generator: Adobe Illustrator 25.3.1, SVG Export Plug-In . SVG Version: 6.00 Build 0)  -->
<svg version="1.1" id="レイヤー_1" xmlns="http://www.w3.org/2000/svg" xmlns:xlink="http://www.w3.org/1999/xlink" x="0px"
	 y="0px" viewBox="0 0 510 274.6" style="enable-background:new 0 0 510 274.6;" xml:space="preserve">
<style type="text/css">
	.st0{fill:#DF212C;}
	.st1{fill:#005392;}
	.st2{fill:#403F41;}
</style>
<path class="st0" d="M263.53,4.4h-0.61h-51.19h-0.63c-0.49,0-0.95,0.28-1.17,0.72l-72.59,145.61c-0.43,0.87,0.2,1.88,1.17,1.88
	h51.82c0.49,0,0.95-0.28,1.17-0.72l18.74-37.58v36.81c0,0.83,0.67,1.5,1.5,1.5h51.79c0.83,0,1.5-0.67,1.5-1.5V5.89
	C265.03,5.07,264.36,4.4,263.53,4.4z"/>
<path class="st0" d="M132.93,150.67L60.34,5.06c-0.22-0.44-0.67-0.72-1.16-0.72h-0.64H7.36h-0.6c-0.83,0-1.5,0.67-1.5,1.5v145.21
	c0,0.83,0.67,1.5,1.5,1.5h51.78c0.83,0,1.5-0.67,1.5-1.5v-36.8l18.74,37.59c0.22,0.44,0.67,0.72,1.16,0.72h51.82
	C132.73,152.55,133.36,151.54,132.93,150.67z"/>
<path class="st1" d="M503.89,152.61h-59.6c-0.47,0-0.85-0.38-0.85-0.85V5.24c0-0.47,0.38-0.84,0.84-0.84h59.61
	c0.47,0,0.85,0.38,0.85,0.85v146.51C504.74,152.23,504.36,152.61,503.89,152.61z"/>
<path class="st1" d="M421.31,4.4h-58.68c-0.72,0-1.31,0.59-1.31,1.31v105.95c0,5.01-3.18,7.08-7.08,7.08
	c-3.91,0-7.09-2.37-7.09-7.08V5.71c0-0.72-0.59-1.31-1.31-1.31h-58.68c-0.72,0-1.31,0.59-1.31,1.31v101.57
	c0,41.65,26.98,68.38,68.39,68.38c40.88,0,68.38-26.73,68.38-68.38V5.71C422.62,4.98,422.04,4.4,421.31,4.4z"/>
<g>
	<rect x="273.98" y="235.74" class="st2" width="4.57" height="34.31"/>
	<path class="st2" d="M250.4,252.32v4h6.82v8.16c-2.06,1.68-5.16,2.36-8.25,2.36c-7.23,0-12.55-5.2-12.55-13.96
		c0-7.93,5.03-13.9,12.55-13.9c5.14,0,8.21,1.95,10.07,3.47l2.36-3.35c-2.41-1.8-5.99-4.11-12.44-4.11
		c-9.81,0-17.13,7.49-17.13,17.9c0,10.32,7.44,17.95,17.13,17.95c5.13,0,9.72-1.48,12.83-4.2v-14.32H250.4L250.4,252.32z"/>
	<path class="st2" d="M218.38,235.74v20.31c0,7.11-3.15,10.64-8.84,10.64c-5.68,0-8.89-3.58-8.89-10.64v-20.31h-4.57v20.62
		c0,9.75,5.47,14.34,13.47,14.34c7.98,0,13.42-4.53,13.42-14.38v-20.58L218.38,235.74L218.38,235.74z"/>
	<g>
		<rect x="352.95" y="235.74" class="st2" width="4.57" height="34.31"/>
		<path class="st2" d="M337.6,235.74v20.31c0,7.11-3.15,10.64-8.84,10.64c-5.68,0-8.89-3.58-8.89-10.64v-20.31h-4.57v20.62
			c0,9.75,5.47,14.34,13.47,14.34c7.98,0,13.42-4.53,13.42-14.38v-20.58L337.6,235.74L337.6,235.74z"/>
	</g>
	<polygon class="st2" points="179.62,235.74 168.75,253.36 157.9,235.74 152.49,235.74 152.49,270.05 157.06,270.05 157.06,242.46 
		167.13,258.61 170.38,258.61 180.5,242.46 180.5,270.05 185.06,270.05 185.06,235.74 	"/>
	<rect x="289.58" y="252.46" class="st2" width="14.7" height="3.72"/>
</g>
</svg>
