<?xml version="1.0" encoding="utf-8"?>
<!-- Generator: Adobe Illustrator 25.3.1, SVG Export Plug-In . SVG Version: 6.00 Build 0)  -->
<svg version="1.1" id="レイヤー_1" xmlns="http://www.w3.org/2000/svg" xmlns:xlink="http://www.w3.org/1999/xlink" x="0px"
	 y="0px" viewBox="0 0 510 180" style="enable-background:new 0 0 510 180;" xml:space="preserve">
<style type="text/css">
	.st0{fill:#DF212C;}
	.st1{fill:#005392;}
</style>
<path class="st0" d="M263.53,4.4h-0.61h-51.19h-0.63c-0.49,0-0.95,0.28-1.17,0.72l-72.59,145.61c-0.43,0.87,0.2,1.88,1.17,1.88
	h51.82c0.49,0,0.95-0.28,1.17-0.72l18.74-37.58v36.81c0,0.83,0.67,1.5,1.5,1.5h51.79c0.83,0,1.5-0.67,1.5-1.5V5.89
	C265.03,5.07,264.36,4.4,263.53,4.4z"/>
<path class="st0" d="M132.93,150.67L60.34,5.06c-0.22-0.44-0.67-0.72-1.16-0.72h-0.64H7.36h-0.6c-0.83,0-1.5,0.67-1.5,1.5v145.21
	c0,0.83,0.67,1.5,1.5,1.5h51.78c0.83,0,1.5-0.67,1.5-1.5v-36.8l18.74,37.59c0.22,0.44,0.67,0.72,1.16,0.72h51.82
	C132.73,152.55,133.36,151.54,132.93,150.67z"/>
<path class="st1" d="M503.89,152.61h-59.6c-0.47,0-0.85-0.38-0.85-0.85V5.24c0-0.47,0.38-0.84,0.84-0.84h59.61
	c0.47,0,0.85,0.38,0.85,0.85v146.51C504.74,152.23,504.36,152.61,503.89,152.61z"/>
<path class="st1" d="M421.31,4.4l-58.68,0c-0.72,0-1.31,0.59-1.31,1.31l0,105.95c0,5.01-3.18,7.08-7.08,7.08
	c-3.91,0-7.09-2.37-7.09-7.08l0-105.95c0-0.72-0.59-1.31-1.31-1.31l-58.68,0c-0.72,0-1.31,0.59-1.31,1.31l0,101.57
	c0,41.65,26.98,68.38,68.39,68.38c40.88,0,68.38-26.73,68.38-68.38l0-101.57C422.62,4.98,422.04,4.4,421.31,4.4z"/>
</svg>
